<svg width="266" height="80" viewBox="0 0 266 80" fill="none" xmlns="http://www.w3.org/2000/svg">
<path d="M164.398 62.4985C149.014 73.838 126.715 79.888 107.517 79.888C80.5967 79.888 56.362 69.9314 38.0275 53.3716C36.587 52.0694 37.8776 50.2947 39.6062 51.3088C59.3927 62.8212 83.858 69.747 109.13 69.747C126.174 69.747 144.923 66.2207 162.163 58.903C164.767 57.7967 166.945 60.6086 164.398 62.4985Z" fill="#8C949E"/>
<path d="M170.794 55.1808C168.835 52.6686 157.795 53.9939 152.84 54.5816C151.33 54.766 151.1 53.4522 152.46 52.5073C161.252 46.319 175.68 48.1052 177.363 50.1795C179.045 52.2653 176.925 66.7278 168.662 73.6306C167.395 74.6908 166.185 74.1261 166.749 72.7202C168.605 68.0876 172.765 57.7046 170.794 55.1808Z" fill="#8C949E"/>
<path d="M153.186 8.8202V2.80474C153.186 1.89435 153.877 1.28358 154.707 1.28358H181.638C182.502 1.28358 183.194 1.90587 183.194 2.80474V7.95591C183.182 8.8202 182.456 9.94954 181.166 11.7357L167.21 31.6606C172.396 31.5338 177.87 32.3059 182.572 34.9564C183.632 35.5556 183.92 36.4314 184.001 37.2957V43.7145C184.001 44.5904 183.033 45.616 182.018 45.0859C173.733 40.7414 162.727 40.2689 153.566 45.132C152.633 45.639 151.653 44.6249 151.653 43.7491V37.653C151.653 36.6734 151.665 35.0025 152.644 33.5159L168.812 10.3298H154.741C153.877 10.3298 153.186 9.71908 153.186 8.8202Z" fill="#8C949E"/>
<path d="M54.9446 46.3535H46.7511C45.9675 46.2959 45.3452 45.7082 45.2875 44.9591V2.90847C45.2875 2.06722 45.9905 1.39883 46.8663 1.39883H54.5066C55.3018 1.43338 55.9356 2.04417 55.9932 2.80474V8.30164H56.143C58.1367 2.98912 61.8819 0.51149 66.9294 0.51149C72.0575 0.51149 75.2612 2.98912 77.5659 8.30164C79.5481 2.98912 84.0539 0.51149 88.8824 0.51149C92.3165 0.51149 96.0733 1.92893 98.3666 5.10952C100.959 8.64735 100.429 13.787 100.429 18.2929L100.418 44.8324C100.418 45.6736 99.7149 46.3535 98.839 46.3535H90.6571C89.8389 46.2959 89.182 45.639 89.182 44.8324V22.5452C89.182 20.7705 89.3434 16.3453 88.9516 14.6628C88.3408 11.8395 86.5085 11.0443 84.1346 11.0443C82.1525 11.0443 80.0782 12.3696 79.2369 14.49C78.3957 16.6104 78.4763 20.1597 78.4763 22.5452V44.8324C78.4763 45.6736 77.7734 46.3535 76.8976 46.3535H68.7156C67.8859 46.2959 67.2405 45.639 67.2405 44.8324L67.229 22.5452C67.229 17.8549 68.0011 10.9521 62.1816 10.9521C56.2928 10.9521 56.5233 17.6821 56.5233 22.5452V44.8324C56.5233 45.6736 55.8204 46.3535 54.9446 46.3535Z" fill="#8C949E"/>
<path d="M206.38 0.51149C218.538 0.51149 225.118 10.9521 225.118 24.2277C225.118 37.0537 217.846 47.2293 206.38 47.2293C194.441 47.2293 187.942 36.7887 187.942 23.7782C187.942 10.6871 194.522 0.51149 206.38 0.51149ZM206.449 9.09679C200.411 9.09679 200.03 17.3248 200.03 22.453C200.03 27.5926 199.95 38.5634 206.38 38.5634C212.73 38.5634 213.029 29.713 213.029 24.3198C213.029 20.7705 212.879 16.5297 211.808 13.1647C210.886 10.2377 209.053 9.09679 206.449 9.09679Z" fill="#8C949E"/>
<path d="M240.882 46.3535H232.724C231.905 46.2959 231.248 45.639 231.248 44.8324L231.237 2.77017C231.306 1.99807 231.986 1.39883 232.816 1.39883H240.41C241.124 1.43338 241.712 1.91741 241.873 2.57427V9.00459H242.023C244.317 3.25418 247.532 0.51149 253.19 0.51149C256.866 0.51149 260.45 1.83674 262.755 5.46676C264.898 8.83174 264.898 14.49 264.898 18.5579V45.0283C264.806 45.7658 264.126 46.3535 263.319 46.3535H255.103C254.354 46.2959 253.732 45.7428 253.651 45.0283V22.1879C253.651 17.5899 254.181 10.8599 248.523 10.8599C246.529 10.8599 244.697 12.1967 243.786 14.2249C242.634 16.7947 242.484 19.3531 242.484 22.1879V44.8324C242.473 45.6736 241.758 46.3535 240.882 46.3535Z" fill="#8C949E"/>
<path d="M131.717 26.2674V24.4927C125.793 24.4927 119.536 25.7603 119.536 32.7438C119.536 36.2816 121.368 38.6786 124.514 38.6786C126.819 38.6786 128.882 37.2612 130.184 34.9564C131.797 32.1215 131.717 29.4595 131.717 26.2674ZM139.979 46.2383C139.438 46.7223 138.654 46.7568 138.043 46.4342C135.324 44.1755 134.84 43.1268 133.342 40.9719C128.847 45.5584 125.667 46.9297 119.836 46.9297C112.944 46.9297 107.574 42.6774 107.574 34.1612C107.574 27.512 111.181 22.9831 116.309 20.7705C120.757 18.8114 126.969 18.4657 131.717 17.9241V16.8639C131.717 14.9163 131.866 12.6116 130.726 10.9291C129.723 9.41945 127.81 8.79716 126.128 8.79716C123.005 8.79716 120.216 10.399 119.536 13.7179C119.398 14.4554 118.856 15.1814 118.118 15.216L110.167 14.3632C109.499 14.2134 108.761 13.6718 108.945 12.6461C110.778 3.01218 119.478 0.108154 127.268 0.108154C131.256 0.108154 136.465 1.16835 139.611 4.18761C143.598 7.90982 143.218 12.8766 143.218 18.2813V31.0498C143.218 34.8873 144.808 36.5697 146.306 38.644C146.836 39.3816 146.951 40.2689 146.283 40.822C144.612 42.2164 141.639 44.8093 140.002 46.2613L139.979 46.2383Z" fill="#8C949E"/>
<path d="M24.3025 26.2674V24.4927C18.3792 24.4927 12.1218 25.7603 12.1218 32.7438C12.1218 36.2816 13.9541 38.6786 17.1001 38.6786C19.4049 38.6786 21.4676 37.2612 22.7698 34.9564C24.3832 32.1215 24.3025 29.4595 24.3025 26.2674ZM32.5651 46.2383C32.0235 46.7223 31.2399 46.7568 30.6291 46.4342C27.9095 44.1755 27.4255 43.1268 25.9274 40.9719C21.4331 45.5584 18.2525 46.9297 12.4214 46.9297C5.5301 46.9297 0.159973 42.6774 0.159973 34.1612C0.159973 27.512 3.76695 22.9831 8.89508 20.7705C13.3433 18.8114 19.5547 18.4657 24.3025 17.9241V16.8639C24.3025 14.9163 24.4523 12.6116 23.3115 10.9291C22.3089 9.41945 20.3959 8.79716 18.7134 8.79716C15.5905 8.79716 12.8017 10.399 12.1218 13.7179C11.9835 14.4554 11.4419 15.1814 10.7043 15.216L2.75285 14.3632C2.08446 14.2134 1.34693 13.6718 1.53131 12.6461C3.36361 3.01218 12.0641 0.108154 19.8543 0.108154C23.8416 0.108154 29.0504 1.16835 32.1964 4.18761C36.1836 7.90982 35.8033 12.8766 35.8033 18.2813V31.0498C35.8033 34.8873 37.3937 36.5697 38.8918 38.644C39.4219 39.3816 39.5371 40.2689 38.8687 40.822C37.1977 42.2164 34.2246 44.8093 32.5882 46.2613L32.5651 46.2383Z" fill="#8C949E"/>
</svg>
