<svg width="195" height="79" viewBox="0 0 195 79" fill="none" xmlns="http://www.w3.org/2000/svg">
<g clip-path="url(#clip0_3_603)">
<path d="M38.098 72.7525V78.1385H0.397705V72.7525H38.098ZM97.0145 72.7525C93.2327 76.2292 88.2792 78.1523 83.1422 78.1382L43.4837 78.0852V72.7525H97.0145ZM153.07 72.7525L151.19 78.1382L149.326 72.7525H153.07ZM135.041 72.7525V78.1385H108.113V72.7525H135.041ZM194.284 72.7525V78.1385H167.356V72.7525H194.284ZM103.115 62.4712C102.653 64.3605 101.923 66.174 100.948 67.8569H43.4837V62.4712H103.115ZM156.68 62.4712L154.79 67.8573H147.607L145.717 62.4712H156.68ZM135.041 62.4712V67.8569H108.113V62.4712H135.041ZM194.284 62.4712V67.8569H167.356V62.4712H194.284ZM38.098 62.4712V67.8569H0.397705V62.4712H38.098ZM27.326 52.1888V57.5748H11.169V52.1888H27.326ZM70.4119 52.1888V57.5748H54.2546V52.1888H70.4119ZM102.985 52.1888C103.462 53.9444 103.705 55.7555 103.705 57.5748H85.5904V52.1888H102.985ZM160.289 52.1888L158.398 57.5748H143.998L142.106 52.1888H160.289ZM135.041 52.1888V57.5748H118.884V52.1888H135.041ZM183.512 52.1888V57.5748H167.355V52.1888H183.512ZM27.326 41.9072V47.2928H11.169V41.9072H27.326ZM135.041 41.9072V47.2928H118.884V41.9072H135.041ZM183.512 41.9072V47.2928H167.355V41.9072H183.512ZM96.4491 41.9072C98.2427 43.4329 99.7621 45.2543 100.941 47.2924H54.255V41.9068L96.4491 41.9072ZM163.899 41.9072L162.009 47.2928H140.388L138.497 41.9068L163.899 41.9072ZM149.684 31.6255L151.198 35.9788L152.711 31.6255H183.512V37.0111H167.356V32.0629L165.618 37.0115H136.779L135.041 32.0621V37.0115H118.884V31.6255H149.684ZM54.2546 31.6255H100.942C99.7627 33.6638 98.2433 35.4853 96.4495 37.0111H54.255L54.2546 31.6255ZM27.326 31.6255V37.0111H11.169V31.6251L27.326 31.6255ZM27.326 21.3434V26.7291H11.169V21.3434H27.326ZM70.4119 21.3434V26.7291H54.2546V21.3434H70.4119ZM103.706 21.3434C103.705 23.1626 103.463 24.9736 102.985 26.7291H85.5904V21.3434H103.706ZM146.108 21.3434L147.981 26.7291H118.884V21.3434H146.108ZM183.512 21.3434V26.7291H154.415L156.287 21.3434H183.512ZM38.0973 11.0614V16.4474H0.397705V11.061L38.0973 11.0614ZM100.948 11.0614C101.923 12.7443 102.652 14.5578 103.114 16.4471H43.4829V11.0614H100.948ZM194.284 11.0614V16.4471H157.99L159.863 11.0614H194.284ZM142.533 11.0614L144.406 16.4471H108.112V11.0614H142.533ZM38.0984 0.780122V6.16539H0.397705V0.779743L38.0984 0.780122ZM83.1422 0.779743C88.2779 0.77279 93.2289 2.69491 97.0145 6.16539H43.4837V0.779743H83.1422ZM194.284 0.779743V6.16577H161.566L163.439 0.780122L194.284 0.779743ZM138.958 0.779743L140.831 6.16577H108.113V0.780122L138.958 0.779743Z" fill="#8C949E"/>
</g>
<defs>
<clipPath id="clip0_3_603">
<rect width="193.886" height="77.6303" fill="white" transform="translate(0.397705 0.779785)"/>
</clipPath>
</defs>
</svg>
