<svg width="510" height="81" viewBox="0 0 510 81" fill="none" xmlns="http://www.w3.org/2000/svg">
<path d="M3.17784 46.7699C4.0313 51.8858 5.88006 56.5895 8.48276 60.7111C18.2068 57.9933 26.7564 52.8475 29.797 41.3793C33.1412 28.757 29.3242 15.5303 20.1924 8.52094C7.75868 16.4245 0.58758 31.2875 3.17784 46.7699ZM77.4965 34.2351C80.9452 54.8359 67.1057 74.3451 46.5802 77.8047C43.129 78.3893 39.7052 78.4792 36.3884 78.1295C25.6815 77.0054 16.0321 71.2925 9.82392 62.7045L70.8355 45.1437C71.7114 44.8889 71.485 44.0446 70.7609 44.0946L45.1818 45.8881C48.7848 42.396 51.5268 38.1119 51.1959 32.1892C50.5215 22.5945 40.795 13.2321 22.7055 7.07211C26.1816 5.22111 29.9986 3.8847 34.0917 3.19526C37.5454 2.61573 40.9692 2.5208 44.2835 2.87052C60.7034 4.59662 74.6276 17.0915 77.4965 34.2351Z" fill="#8C949E"/>
<path d="M287.203 56.2297V43.0429H274.033V56.2297H266.804V24.8202H274.033V37.3326H287.203V24.8202H294.486V56.2297H287.203Z" fill="#8C949E"/>
<path d="M131.404 24.8202V44.4843C131.404 46.6575 131.723 48.5385 132.352 50.0672C132.977 51.5835 133.883 52.845 135.045 53.8142C136.216 54.7934 137.632 55.5153 139.247 55.96C140.889 56.4146 142.743 56.6469 144.756 56.6469C146.767 56.6469 148.603 56.4146 150.21 55.96C151.793 55.5153 153.141 54.7959 154.224 53.8242C155.304 52.855 156.152 51.5935 156.744 50.0747C157.342 48.551 157.64 46.67 157.64 44.4843V24.8202H150.877V44.2744C150.877 46.2553 150.387 47.8565 149.422 49.0306C148.434 50.2271 146.864 50.8341 144.756 50.8341C142.683 50.8341 141.126 50.2296 140.121 49.0356C139.135 47.864 138.635 46.2628 138.635 44.2744V24.8202H131.404Z" fill="#8C949E"/>
<path d="M110.553 56.2347V30.6855H102.053V24.8202H126.333V27.6329C126.333 29.3166 124.972 30.6855 123.295 30.6855H117.784V56.2347H110.553Z" fill="#8C949E"/>
<path d="M226.746 24.8177H233.977V56.2272H226.746V24.8177Z" fill="#8C949E"/>
<path d="M202.667 41.5816L202.911 41.8939L212.148 53.8417C213.322 55.3629 215.096 56.2372 217.015 56.2372H222.772L209.54 39.3409L209.346 39.0911L209.54 38.8438L220.418 24.8077H212.894L202.919 38.3467L202.667 38.674L202.665 38.1069V24.8077H195.434V56.2197H202.665V42.1412L202.667 41.5816Z" fill="#8C949E"/>
<path d="M171.549 39.1961H175.765C177.282 39.1961 178.439 38.7764 179.201 37.9546C179.955 37.1402 180.338 36.0811 180.338 34.8096C180.338 33.5057 179.965 32.434 179.231 31.6197C178.484 30.7904 177.32 30.3732 175.765 30.3732H171.549V39.1961ZM186.009 56.2248C183.866 56.2248 181.848 55.0832 180.741 53.2447L175.115 43.9197H171.549V56.2248H164.324V24.8202H177.208C180.517 24.8202 183.11 25.687 184.911 27.3981C186.708 29.1042 187.618 31.4424 187.618 34.345C187.618 35.8188 187.228 37.3126 186.456 38.7839C185.695 40.2302 184.346 41.4143 182.443 42.301L182.025 42.4959L190.803 56.2248H186.009Z" fill="#8C949E"/>
<path d="M239.911 54.8958V48.8732C242.213 49.9373 245.179 50.999 248.244 50.999C251.773 50.999 253.562 49.785 253.562 47.4568C253.562 44.7241 251.161 44.4218 246.353 42.346C243.081 40.8797 239.964 38.6015 239.964 33.3408C239.964 27.2183 244.617 24.3331 251.059 24.3331C254.482 24.3331 257.399 25.1424 259.033 25.7495V31.6197C257.399 30.8603 254.482 29.9485 251.569 29.9485C248.399 29.9485 246.916 31.1126 246.916 33.136C246.916 35.2617 248.707 35.9212 251.927 37.1352C256.067 39.2085 260.875 40.1203 260.875 47.2046C260.875 53.3271 256.018 56.6669 249.523 56.6669C245.535 56.6669 242.367 55.9575 239.911 54.8958Z" fill="#8C949E"/>
<path d="M463.246 56.2272V24.8152H482.838V27.6654C482.838 29.3291 481.489 30.6805 479.835 30.6805H470.476V37.4375H480.984V42.6807H470.476V50.3645H482.838V56.2272H463.246Z" fill="#8C949E"/>
<path d="M391.764 56.2247V24.8152H395.277C397.325 24.8152 398.992 26.4889 398.992 28.5447V50.5668H410.532V56.2247H391.764Z" fill="#8C949E"/>
<path d="M347.008 56.2197V24.8302H354.238L354.236 56.2197H347.008Z" fill="#8C949E"/>
<path d="M368.095 39.1911H372.31C373.828 39.1911 374.983 38.7739 375.747 37.9521C376.501 37.1352 376.884 36.0786 376.884 34.8046C376.884 33.5032 376.511 32.429 375.774 31.6147C375.03 30.7879 373.863 30.3682 372.31 30.3682H368.095V39.1911ZM382.555 56.2198C380.412 56.2198 378.392 55.0782 377.284 53.2422L371.661 43.9172H368.095V56.2198H360.87V24.8177H373.751C377.063 24.8177 379.653 25.6845 381.457 27.3956C383.254 29.1017 384.164 31.4398 384.164 34.3425C384.164 35.8163 383.774 37.3101 383 38.7814C382.241 40.2252 380.89 41.4093 378.989 42.2985L378.571 42.4934L387.349 56.2198H382.555Z" fill="#8C949E"/>
<path d="M322.158 44.7815L324.997 36.843C325.626 35.0569 326.258 33.1709 326.679 31.7821H326.783C327.151 33.2209 327.783 35.0069 328.413 36.843L331.148 44.7815H322.158ZM331.09 24.8127H322.787L310.988 56.2247H316.196C317.519 56.2247 318.686 55.3779 319.099 54.1189L320.311 50.4319H333.001L334.857 56.2247H342.69L331.09 24.8127Z" fill="#8C949E"/>
<path d="M488.646 54.8958V48.8757C490.945 49.9373 493.911 50.999 496.979 50.999C500.507 50.999 502.296 49.785 502.296 47.4568C502.296 44.7241 499.892 44.4218 495.088 42.3485C491.816 40.8797 488.695 38.604 488.695 33.3408C488.695 27.2183 493.348 24.3331 499.79 24.3331C503.217 24.3331 506.13 25.1424 507.768 25.7495V31.6197C506.13 30.8628 503.217 29.951 500.303 29.951C497.133 29.951 495.65 31.1151 495.65 33.1385C495.65 35.2617 497.439 35.9212 500.659 37.1352C504.802 39.2085 509.606 40.1203 509.606 47.2046C509.606 53.3271 504.749 56.6669 498.258 56.6669C494.269 56.6669 491.099 55.9575 488.646 54.8958Z" fill="#8C949E"/>
<path d="M429.035 24.8202H433.516C435.644 24.8202 437.622 25.9218 438.746 27.7354L447.473 41.8089C448.458 43.3727 449.6 45.4385 450.277 46.8998H450.431C450.327 45.4885 450.277 43.5226 450.277 42.1112V24.8202H456.612V56.2272H448.685L438.072 39.236C437.084 37.6748 436.047 35.8088 435.318 34.3975H435.216C435.268 35.7588 435.37 37.3725 435.37 38.8838V56.2272H429.035V24.8202Z" fill="#8C949E"/>
<path d="M415.185 56.2197V24.8302H422.414V56.2197H415.185Z" fill="#8C949E"/>
</svg>
